<svg xmlns="http://www.w3.org/2000/svg" width="192" height="192" viewBox="0 0 192 192" fill="none">
  <defs>
    <linearGradient id="bg" x1="0" y1="0" x2="1" y2="1">
      <stop offset="0%" stop-color="#6d28d9"/>
      <stop offset="100%" stop-color="#db2777"/>
    </linearGradient>
  </defs>
  <rect width="192" height="192" rx="36" fill="url(#bg)"/>
  <circle cx="96" cy="96" r="54" fill="#0b1325" opacity="0.2"/>
  <g stroke="#ffffff" stroke-width="8" stroke-linecap="round" stroke-linejoin="round">
    <path d="M72 96h.02"/>
    <path d="M120 96h.02"/>
    <path d="M80 128c4 2.4 9.6 4 16 4s12-1.6 16-4"/>
    <path d="M152 50.4a72 72 0 0 1 14.4 31.2 16 16 0 0 1 0 28.8 72 72 0 0 1-140.8 0 16 16 0 0 1 0-28.8A72 72 0 0 1 96 24c16 0 28 8.8 28 20s-7.2 20-16 20c-6.4 0-12-3.2-12-8"/>
  </g>
</svg>
